<svg width="79" height="80" viewBox="0 0 79 80" fill="none" xmlns="http://www.w3.org/2000/svg">
<g filter="url(#filter0_d_105_1532)">
<path d="M70.2679 30.8076C75.047 47.8225 65.1287 65.4889 48.1138 70.268C31.0989 75.0471 13.4325 65.1288 8.65339 48.1139C3.87424 31.099 13.7926 13.4326 30.8075 8.6535C47.8224 3.87436 65.4887 13.7927 70.2679 30.8076ZM68.7578 31.2627C64.212 15.0785 47.4078 5.64419 31.2236 10.19C15.0394 14.7358 5.60513 31.54 10.1509 47.7242C14.6968 63.9083 31.5009 73.3426 47.6851 68.7968C63.8693 64.251 73.3036 47.4469 68.7578 31.2627Z" fill="#5F50FF"/>
<path d="M33.581 19.2171C33.2141 19.0111 33.2429 18.5086 33.1137 18.1585L31.5727 18.6686C31.6129 18.8119 31.6504 19.1104 31.564 19.2428C31.3831 19.4791 29.5069 20.006 29.0812 20.1411C28.3772 20.3852 27.6274 20.7966 26.8957 20.8322C26.727 20.6169 26.6403 20.3631 26.5249 20.1173C26.0393 19.0485 25.4159 17.7093 25.0488 16.6225C24.6818 15.5358 24.9259 16.2399 24.9206 16.0559C24.9743 15.9172 26.399 15.378 26.6093 15.4116C26.8197 15.4453 26.9268 16.1569 27.0915 16.3579L28.5121 15.8043L28.5739 15.6942C28.5659 15.6656 28.5045 15.6674 28.4965 15.6387L28.1948 14.5646L29.6557 14.1542C29.713 14.1381 30.1788 14.1464 30.2276 14.2099L30.4936 15.0469L31.9831 14.6285C31.8817 13.9925 31.8378 14.2212 31.5013 14.0685C31.1648 13.9158 31.0396 13.5801 31.1717 13.2803C31.7446 13.1194 32.3449 12.7808 32.9339 12.6772C33.5229 12.5736 33.4186 12.5874 33.5362 12.7861L35.0889 18.809L33.5993 19.2274L33.581 19.2171ZM32.5465 16.1391L31.2145 16.5132C31.2002 16.5173 31.0055 16.6492 31.0135 16.6779L31.1503 17.1648C31.6722 16.9873 32.1676 16.7709 32.6913 16.6547L32.5465 16.1391ZM29.4036 18.428C29.307 18.0843 29.2105 17.7406 29.0853 17.4049C28.9601 17.0692 29.0612 17.3189 28.9775 17.2961L27.6101 17.8192L28.0487 18.8858L29.3893 18.4321L29.4036 18.428Z" fill="#5F50FF"/>
<path d="M20.7814 25.687C21.0133 25.4673 21.9813 24.2374 22.2122 24.2343C22.3934 24.3843 23.2587 25.0993 23.217 25.281L19.1 29.7133C18.8346 29.6487 18.0073 29.1239 18.0535 28.8483L19.7114 26.8837L19.3101 26.6102C18.447 27.2234 17.4543 27.595 16.5626 26.841C14.0769 24.7578 18.7301 20.1441 20.5698 22.7332C21.2319 23.6598 21.0486 24.4376 20.4866 25.3526L20.7895 25.7156L20.7814 25.687ZM18.3892 23.7166C17.8198 24.0001 17.0636 24.9388 17.7437 25.4895C18.4237 26.0402 19.3653 24.7713 19.4205 24.3077C19.4757 23.844 18.8766 23.4715 18.3748 23.7206L18.3892 23.7166Z" fill="#5F50FF"/>
<path d="M19.2968 20.1532L20.6532 18.876C20.8761 18.8443 22.1667 20.4133 22.4436 20.6291L23.5466 19.8248L24.6708 21.1315C24.6887 21.2501 23.8525 21.794 23.7088 21.9426C23.5651 22.0911 23.592 22.0218 23.6488 22.114C24.1444 22.7783 24.8629 23.4109 25.3402 24.0649C25.8175 24.7189 25.5558 24.2825 25.4837 24.4109C25.3252 24.6717 24.3672 25.4971 24.0513 25.3077C23.7354 25.1183 22.9222 24.2032 22.6394 23.9118C21.6753 22.9 20.5954 21.7509 19.6949 20.6904C18.7944 19.6298 19.2963 20.2615 19.3295 20.1595L19.2968 20.1532Z" fill="#5F50FF"/>
<path d="M33.7633 21.2678L28.8762 22.9031C28.2872 23.0068 27.5841 21.659 28.2824 21.3393C29.4762 20.8031 31.1026 20.3772 32.3796 19.9722C33.6565 19.5671 32.607 19.8465 32.7462 19.7919C33.0899 19.6954 34.7066 19.1795 34.9352 19.2234C35.4212 19.3033 35.4817 20.3988 35.6516 20.7838C35.5879 21.327 36.3412 22.4134 35.6675 22.7108C34.9939 23.0082 34.7039 22.966 34.4157 22.9852C34.1275 23.0043 34.2931 22.9887 34.23 22.9291L33.7633 21.2678Z" fill="#5F50FF"/>
<path d="M26.3281 24.8375C26.3813 24.8071 26.4283 24.8094 26.4753 24.8116C26.5917 24.8408 27.6274 25.8324 27.3565 26.0784C25.7154 27.4974 24.1109 28.937 22.6998 30.5696C22.5153 30.6832 22.2575 30.7556 22.0557 30.6423L20.4174 29.1555L20.3772 29.0123C20.4206 28.8919 21.4803 27.7135 21.5806 27.6853C21.7811 27.629 22.338 28.2915 22.5542 28.4008C23.6779 27.0653 25.0173 25.9474 26.3384 24.8192L26.3281 24.8375Z" fill="#5F50FF"/>
<path d="M50.5179 14.5394C50.6387 14.4746 50.6611 14.4992 50.7734 14.514C50.9511 14.5414 52.591 15.2087 52.6845 15.3215C52.778 15.4344 52.778 15.4344 52.7735 15.5283L50.6753 19.9962C50.4523 20.5224 48.8553 19.843 48.8218 19.5588C48.7883 19.2746 48.9097 19.1014 48.9491 18.9667C49.1718 18.0543 49.5526 16.9893 49.8693 16.0814C49.9831 15.7713 50.3008 14.6468 50.5282 14.5211L50.5179 14.5394Z" fill="#5F50FF"/>
<path d="M45.9692 63.0672C46.1863 62.9599 46.8707 63.9111 47.0519 64.0611C47.2846 64.1194 48.3977 63.7913 48.4849 63.9368C48.5568 64.3029 47.8898 64.9538 47.8763 65.2357C47.8627 65.5177 48.6165 66.4958 48.3542 66.6622L46.9311 66.382C46.7982 66.4039 46.1423 67.3143 45.8948 67.3684C45.6473 67.4225 45.7395 67.3657 45.7091 67.3124C45.5874 67.0993 45.7041 66.1394 45.4827 65.8462C45.4035 65.7294 43.8181 65.2012 44.4304 64.9056C45.0427 64.61 45.5006 64.5896 45.6053 64.4674L45.9549 63.0713L45.9692 63.0672Z" fill="#5F50FF"/>
<path d="M51.8475 60.9374L52.7158 61.8833L54.0428 61.7114C54.2079 61.8041 53.5372 62.827 53.5178 63.0333L54.0259 64.1267C53.999 64.1961 53.9967 64.2431 53.9108 64.2672C53.7206 64.3052 52.733 63.98 52.6511 64.0184C52.5074 64.1669 51.7597 65.0259 51.5946 64.9333L51.3861 63.5857L50.2509 62.9001C50.2134 62.6016 51.2911 62.4225 51.4371 62.227C51.5522 62.0865 51.4515 60.8477 51.8475 60.9374Z" fill="#5F50FF"/>
<path d="M42.2114 67.5559L40.8434 67.3066C40.612 67.418 40.0523 68.286 39.7972 68.2031C39.5422 68.1202 39.7086 67.0073 39.5337 66.8246C39.1936 66.5493 38.5438 66.5464 38.4746 66.025L39.6518 65.5398C39.7141 65.3215 39.7901 64.3266 39.9763 64.2743C40.1624 64.222 40.7654 65.1034 40.9856 65.227L42.2163 65.0976C42.3183 65.1308 42.3224 65.1451 42.2892 65.2471C42.235 65.4942 41.7214 66.0865 41.7205 66.3031L42.2052 67.5886L42.2114 67.5559Z" fill="#5F50FF"/>
<path d="M35.0689 65.5389L36.4183 65.3916C36.5995 65.5416 35.9028 66.4172 35.8732 66.6418C35.913 66.8934 36.4368 67.6579 36.3848 67.858C36.3328 68.058 36.3149 67.9394 36.221 67.9349C36.0227 67.9442 35.0758 67.6539 35.0082 67.6883L34.0927 68.6099C34.005 68.5727 33.954 68.5562 33.9258 68.4559C33.8373 68.1408 33.9222 67.4525 33.7661 67.1719C33.554 67.0769 32.6586 66.6949 32.6636 66.4926C32.8387 66.1807 33.6523 66.1067 33.8126 65.9072C33.9729 65.7076 33.9772 64.7329 34.137 64.6417C34.2968 64.5505 34.9141 65.4278 35.073 65.5532L35.0689 65.5389Z" fill="#5F50FF"/>
<path d="M57.8995 59.2088C58.0753 59.1749 59.0819 58.9076 59.1651 59.0388C59.2536 59.3538 58.5946 60.0334 58.608 60.246L59.1643 61.5113L57.8043 61.2907C57.6015 61.394 56.9617 62.3618 56.7725 62.1832L56.5559 60.8069C56.487 60.6718 55.6771 60.3739 55.5429 60.2261C55.2217 59.8528 56.3584 59.7189 56.5536 59.4787C56.7489 59.2384 56.6542 58.4615 56.8861 58.2418C57.0746 58.1425 57.7469 59.0508 57.8995 59.2088Z" fill="#5F50FF"/>
<path d="M49.2731 22.8158C49.8822 22.6447 50.2372 22.0123 50.0662 21.4032C49.8951 20.7942 49.2627 20.4391 48.6536 20.6102C48.0445 20.7812 47.6895 21.4137 47.8605 22.0227C48.0316 22.6318 48.664 22.9869 49.2731 22.8158Z" fill="#5F50FF"/>
<path d="M42.221 13.3576C41.8639 13.2416 41.1036 13.2852 40.699 13.2752C40.5756 13.0008 40.9424 12.326 40.7634 12.1291C40.6068 11.9567 39.0682 11.9253 38.8368 12.0367C38.7652 12.0568 38.716 12.1015 38.7075 12.1812L38.9891 13.1837C38.5536 13.2288 37.357 13.0395 37.0311 13.2547C36.7831 13.417 36.9179 14.3372 37.023 14.6013C37.155 14.796 38.2608 14.7172 38.4976 14.7897C36.4327 15.9106 36.3533 21.7893 39.7251 21.3058C41.1054 21.1035 41.9934 19.4788 42.0175 18.1895C42.0597 16.5243 41.7577 15.0639 40.5942 14.7726C41.1662 14.8283 41.7318 14.9166 42.2818 14.8394C42.413 14.7562 42.4894 13.653 42.4349 13.5138C42.4067 13.4136 42.315 13.3621 42.213 13.3289L42.221 13.3576ZM40.4588 18.0865C40.3994 19.0303 39.9588 19.7722 39.4849 19.7353C39.011 19.6984 38.6814 18.9102 38.7551 17.9624C38.8145 17.0186 39.2552 16.2767 39.7291 16.3136C40.203 16.3504 40.5326 17.1386 40.4588 18.0865Z" fill="#5F50FF"/>
<path d="M46.35 12.8336C46.0886 12.7834 45.8313 12.7475 45.57 12.6972L45.4589 14.2273L45.4315 14.405L45.2609 15.9981L44.3668 15.7857L44.4922 14.2516L44.6387 12.5725C44.0484 12.5065 43.4478 12.4588 42.8862 12.3848C42.743 12.425 42.7465 12.5476 42.7174 12.664C42.5052 13.9443 42.6013 15.7716 42.5072 17.1424C42.4105 18.6684 42.2524 20.1962 42.1413 21.7263C42.2217 22.0128 43.4922 22.1349 43.7161 21.8866C43.94 21.6383 44.0983 18.2407 44.205 17.6854L44.9259 17.7765L44.4348 22.0247C44.513 22.3582 45.7262 22.4965 45.9196 22.1949L47.2006 13.1664C47.1201 12.8799 46.6216 12.8654 46.3603 12.8152L46.35 12.8336Z" fill="#5F50FF"/>
</g>
<circle cx="13.5" cy="13.5" r="12.75" transform="matrix(-0.962748 0.270398 0.270398 0.962748 49.3555 23.9316)" stroke="#5F50FF" stroke-width="1.5"/>
<path d="M43.8863 40.5085C44.6145 40.5279 45.2812 40.3621 45.8089 40.1496C46.1745 40.0024 46.5772 40.3035 46.3519 40.6316C45.7112 41.5647 44.4912 41.9603 43.4916 41.1888C43.179 40.9475 43.4871 40.4978 43.8863 40.5085Z" fill="#5F50FF" stroke="#5F50FF" stroke-width="0.218147"/>
<path d="M53.457 34.9061C54.0762 34.6863 58.1148 34.1327 58.4927 38.5354C58.8707 42.9381 55.0106 43.6545 54.2821 43.3206" stroke="#5F50FF" stroke-width="1.5" stroke-linecap="round"/>
<path d="M25.113 38.3629C24.5069 38.1096 20.5046 37.3357 19.8862 41.7111C19.2677 46.0864 25.2218 46.4367 25.9675 46.1433" stroke="#5F50FF" stroke-width="1.5" stroke-linecap="round"/>
<path d="M39.5972 55.755C39.5396 56.8024 39.1184 60.1327 37.5974 60.4919C35.696 60.941 33.4808 57.2849 34.2052 54.1695" stroke="#5F50FF" stroke-width="1.5" stroke-linecap="round"/>
<path d="M43.466 54.5741C43.6618 55.4649 44.5185 58.2545 46.0607 58.2902C47.9885 58.3348 49.6788 54.7911 48.5527 52.2409" stroke="#5F50FF" stroke-width="1.5" stroke-linecap="round"/>
<ellipse cx="45.7258" cy="36.8944" rx="1" ry="1.5" transform="rotate(-15.688 45.7258 36.8944)" fill="#5F50FF"/>
<ellipse cx="41.8747" cy="37.9765" rx="1" ry="1.5" transform="rotate(-15.688 41.8747 37.9765)" fill="#5F50FF"/>
<defs>
<filter id="filter0_d_105_1532" x="3.45288" y="7.45312" width="72.0154" height="72.0156" filterUnits="userSpaceOnUse" color-interpolation-filters="sRGB">
<feFlood flood-opacity="0" result="BackgroundImageFix"/>
<feColorMatrix in="SourceAlpha" type="matrix" values="0 0 0 0 0 0 0 0 0 0 0 0 0 0 0 0 0 0 127 0" result="hardAlpha"/>
<feOffset dy="4"/>
<feGaussianBlur stdDeviation="2"/>
<feComposite in2="hardAlpha" operator="out"/>
<feColorMatrix type="matrix" values="0 0 0 0 0.352767 0 0 0 0 0.352767 0 0 0 0 0.352767 0 0 0 0.25 0"/>
<feBlend mode="normal" in2="BackgroundImageFix" result="effect1_dropShadow_105_1532"/>
<feBlend mode="normal" in="SourceGraphic" in2="effect1_dropShadow_105_1532" result="shape"/>
</filter>
</defs>
</svg>
