<svg width="406" height="194" viewBox="0 0 406 194" fill="none" xmlns="http://www.w3.org/2000/svg">
<mask id="path-1-outside-1_81_2548" maskUnits="userSpaceOnUse" x="124.272" y="-1.08139" width="156.435" height="167.3" fill="black">
<rect fill="white" x="124.272" y="-1.08139" width="156.435" height="167.3"/>
<path d="M251.908 93.6907C251.256 100.874 249.42 107.346 246.403 113.107C243.465 118.875 239.605 123.715 234.824 127.626C230.043 131.537 224.471 134.411 218.108 136.247C211.745 138.083 204.852 138.664 197.43 137.99C190.008 137.316 183.332 135.502 177.404 132.55C171.476 129.597 166.513 125.767 162.515 121.058C158.517 116.35 155.553 110.89 153.622 104.68C151.772 98.4763 151.173 91.7831 151.825 84.6002L157.523 21.8687L186.973 24.5437L181.058 89.6695C180.797 92.5427 180.986 95.336 181.624 98.0495C182.35 100.69 183.457 103.125 184.944 105.352C186.519 107.507 188.529 109.299 190.974 110.728C193.419 112.157 196.318 113.024 199.67 113.328C203.022 113.633 206.029 113.302 208.692 112.337C211.355 111.372 213.615 109.968 215.472 108.125C217.416 106.209 218.943 104.014 220.053 101.54C221.25 98.9933 221.979 96.2833 222.24 93.4101L228.156 28.2843L257.606 30.9593L251.908 93.6907Z"/>
</mask>
<path d="M251.908 93.6907C251.256 100.874 249.42 107.346 246.403 113.107C243.465 118.875 239.605 123.715 234.824 127.626C230.043 131.537 224.471 134.411 218.108 136.247C211.745 138.083 204.852 138.664 197.43 137.99C190.008 137.316 183.332 135.502 177.404 132.55C171.476 129.597 166.513 125.767 162.515 121.058C158.517 116.35 155.553 110.89 153.622 104.68C151.772 98.4763 151.173 91.7831 151.825 84.6002L157.523 21.8687L186.973 24.5437L181.058 89.6695C180.797 92.5427 180.986 95.336 181.624 98.0495C182.35 100.69 183.457 103.125 184.944 105.352C186.519 107.507 188.529 109.299 190.974 110.728C193.419 112.157 196.318 113.024 199.67 113.328C203.022 113.633 206.029 113.302 208.692 112.337C211.355 111.372 213.615 109.968 215.472 108.125C217.416 106.209 218.943 104.014 220.053 101.54C221.25 98.9933 221.979 96.2833 222.24 93.4101L228.156 28.2843L257.606 30.9593L251.908 93.6907Z" fill="url(#paint0_linear_81_2548)"/>
<path d="M246.403 113.107L227.865 103.396C227.828 103.467 227.791 103.538 227.755 103.609L246.403 113.107ZM234.824 127.626L221.574 111.428L221.574 111.428L234.824 127.626ZM218.108 136.247L212.306 116.14L212.306 116.14L218.108 136.247ZM177.404 132.55L168.074 151.282L168.074 151.282L177.404 132.55ZM162.515 121.058L178.467 107.513L178.467 107.513L162.515 121.058ZM153.622 104.68L133.569 110.662C133.591 110.739 133.615 110.815 133.638 110.891L153.622 104.68ZM157.523 21.8687L159.416 1.02732C147.906 -0.0181674 137.727 8.4653 136.682 19.9757L157.523 21.8687ZM186.973 24.5437L207.815 26.4367C208.86 14.9263 200.377 4.74779 188.866 3.7023L186.973 24.5437ZM181.624 98.0495L161.254 102.844C161.313 103.096 161.377 103.346 161.445 103.595L181.624 98.0495ZM184.944 105.352L167.542 116.975C167.705 117.22 167.874 117.461 168.048 117.699L184.944 105.352ZM190.974 110.728L180.414 128.795L180.414 128.795L190.974 110.728ZM208.692 112.337L201.56 92.6626L201.56 92.6626L208.692 112.337ZM215.472 108.125L200.785 93.2173C200.767 93.2349 200.749 93.2525 200.731 93.2702L215.472 108.125ZM220.053 101.54L201.114 92.6386C201.061 92.7502 201.01 92.8622 200.959 92.9747L220.053 101.54ZM228.156 28.2843L230.049 7.44291C218.538 6.39742 208.36 14.8809 207.314 26.3913L228.156 28.2843ZM257.606 30.9593L278.447 32.8523C279.493 21.3419 271.009 11.1634 259.499 10.1179L257.606 30.9593ZM251.908 93.6907L231.067 91.7977C230.635 96.5472 229.478 100.317 227.865 103.396L246.403 113.107L264.94 122.818C269.363 114.375 271.876 105.2 272.749 95.5838L251.908 93.6907ZM246.403 113.107L227.755 103.609C226.068 106.921 224.004 109.44 221.574 111.428L234.824 127.626L248.074 143.824C255.207 137.99 260.861 130.83 265.05 122.605L246.403 113.107ZM234.824 127.626L221.574 111.428C219.14 113.419 216.146 115.032 212.306 116.14L218.108 136.247L223.91 156.354C232.796 153.789 240.946 149.655 248.074 143.824L234.824 127.626ZM218.108 136.247L212.306 116.14C208.734 117.171 204.48 117.617 199.323 117.148L197.43 137.99L195.537 158.831C205.225 159.711 214.757 158.995 223.91 156.354L218.108 136.247ZM197.43 137.99L199.323 117.148C194.166 116.68 190.062 115.475 186.734 113.817L177.404 132.55L168.074 151.282C176.602 155.529 185.849 157.951 195.537 158.831L197.43 137.99ZM177.404 132.55L186.734 113.817C183.157 112.036 180.502 109.91 178.467 107.513L162.515 121.058L146.563 134.604C152.524 141.624 159.796 147.159 168.074 151.282L177.404 132.55ZM162.515 121.058L178.467 107.513C176.389 105.065 174.745 102.132 173.606 98.4679L153.622 104.68L133.638 110.891C136.36 119.648 140.645 127.634 146.563 134.604L162.515 121.058ZM153.622 104.68L173.676 98.6969C172.669 95.3204 172.227 91.327 172.666 86.4932L151.825 84.6002L130.984 82.7071C130.118 92.2393 130.875 101.632 133.569 110.662L153.622 104.68ZM151.825 84.6002L172.666 86.4932L178.364 23.7617L157.523 21.8687L136.682 19.9757L130.984 82.7071L151.825 84.6002ZM157.523 21.8687L155.63 42.7101L185.08 45.3851L186.973 24.5437L188.866 3.7023L159.416 1.02732L157.523 21.8687ZM186.973 24.5437L166.132 22.6507L160.216 87.7764L181.058 89.6695L201.899 91.5625L207.815 26.4367L186.973 24.5437ZM181.058 89.6695L160.216 87.7764C159.759 92.8106 160.082 97.8653 161.254 102.844L181.624 98.0495L201.995 93.2548C201.889 92.8067 201.835 92.2747 201.899 91.5625L181.058 89.6695ZM181.624 98.0495L161.445 103.595C162.751 108.348 164.781 112.841 167.542 116.975L184.944 105.352L202.347 93.7292C202.133 93.4081 201.949 93.0331 201.803 92.5041L181.624 98.0495ZM184.944 105.352L168.048 117.699C171.422 122.316 175.641 126.005 180.414 128.795L190.974 110.728L201.534 92.6602C201.45 92.6113 201.474 92.6154 201.559 92.6915C201.647 92.7698 201.749 92.8784 201.841 93.0046L184.944 105.352ZM190.974 110.728L180.414 128.795C185.963 132.038 191.937 133.639 197.777 134.17L199.67 113.328L201.563 92.4868C201.124 92.4469 200.95 92.3914 200.978 92.3998C200.992 92.4042 201.054 92.4237 201.154 92.4665C201.254 92.5096 201.384 92.5725 201.534 92.6602L190.974 110.728ZM199.67 113.328L197.777 134.17C203.617 134.7 209.782 134.202 215.824 132.012L208.692 112.337L201.56 92.6626C201.724 92.6034 201.863 92.5649 201.969 92.5405C202.075 92.5164 202.139 92.5084 202.154 92.5067C202.184 92.5035 202.002 92.5266 201.563 92.4868L199.67 113.328ZM208.692 112.337L215.824 132.012C221.104 130.098 226.026 127.134 230.213 122.979L215.472 108.125L200.731 93.2702C200.94 93.0633 201.155 92.8997 201.34 92.7844C201.521 92.6718 201.613 92.6437 201.56 92.6626L208.692 112.337ZM215.472 108.125L230.159 123.032C233.941 119.306 236.968 114.964 239.147 110.105L220.053 101.54L200.959 92.9747C200.919 93.064 200.892 93.1118 200.785 93.2173L215.472 108.125ZM220.053 101.54L238.993 110.441C241.254 105.631 242.606 100.543 243.082 95.3031L222.24 93.4101L201.399 91.517C201.353 92.0234 201.247 92.3552 201.114 92.6386L220.053 101.54ZM222.24 93.4101L243.082 95.3031L248.997 30.1773L228.156 28.2843L207.314 26.3913L201.399 91.517L222.24 93.4101ZM228.156 28.2843L226.263 49.1257L255.713 51.8007L257.606 30.9593L259.499 10.1179L230.049 7.44291L228.156 28.2843ZM257.606 30.9593L236.765 29.0662L231.067 91.7977L251.908 93.6907L272.749 95.5838L278.447 32.8523L257.606 30.9593Z" fill="white" mask="url(#path-1-outside-1_81_2548)"/>
<mask id="path-3-outside-2_81_2548" maskUnits="userSpaceOnUse" x="249.306" y="20.0733" width="159.19" height="169.797" fill="black">
<rect fill="white" x="249.306" y="20.0733" width="159.19" height="169.797"/>
<path d="M385.009 155.35L355.617 158.605L352.932 134.35L311.831 138.901L314.517 163.156L285.125 166.41L278.192 103.803C277.398 96.6346 277.866 89.9309 279.594 83.6924C281.401 77.445 284.258 71.9281 288.162 67.1418C292.067 62.3554 296.953 58.4279 302.822 55.3592C308.691 52.2904 315.329 50.346 322.737 49.5257C330.144 48.7054 337.047 49.1505 343.445 50.8609C349.843 52.5714 355.47 55.3347 360.327 59.1508C365.185 62.9669 369.139 67.7297 372.19 73.439C375.321 79.1396 377.283 85.5742 378.077 92.743L385.009 155.35ZM309.106 114.289L350.206 109.738L348.42 93.608C348.103 90.7405 347.325 88.0852 346.087 85.6422C344.92 83.1106 343.35 80.9463 341.377 79.149C339.475 77.2632 337.183 75.8641 334.502 74.9515C331.821 74.039 328.807 73.7679 325.462 74.1384C322.117 74.5088 319.236 75.4326 316.819 76.9096C314.402 78.3866 312.433 80.2576 310.91 82.5227C309.457 84.6992 308.399 87.1547 307.734 89.889C307.14 92.5349 307.002 95.2916 307.319 98.1591L309.106 114.289Z"/>
</mask>
<path d="M385.009 155.35L355.617 158.605L352.932 134.35L311.831 138.901L314.517 163.156L285.125 166.41L278.192 103.803C277.398 96.6346 277.866 89.9309 279.594 83.6924C281.401 77.445 284.258 71.9281 288.162 67.1418C292.067 62.3554 296.953 58.4279 302.822 55.3592C308.691 52.2904 315.329 50.346 322.737 49.5257C330.144 48.7054 337.047 49.1505 343.445 50.8609C349.843 52.5714 355.47 55.3347 360.327 59.1508C365.185 62.9669 369.139 67.7297 372.19 73.439C375.321 79.1396 377.283 85.5742 378.077 92.743L385.009 155.35ZM309.106 114.289L350.206 109.738L348.42 93.608C348.103 90.7405 347.325 88.0852 346.087 85.6422C344.92 83.1106 343.35 80.9463 341.377 79.149C339.475 77.2632 337.183 75.8641 334.502 74.9515C331.821 74.039 328.807 73.7679 325.462 74.1384C322.117 74.5088 319.236 75.4326 316.819 76.9096C314.402 78.3866 312.433 80.2576 310.91 82.5227C309.457 84.6992 308.399 87.1547 307.734 89.889C307.14 92.5349 307.002 95.2916 307.319 98.1591L309.106 114.289Z" fill="url(#paint1_linear_81_2548)"/>
<path d="M385.009 155.35L387.313 176.15C398.8 174.878 407.081 164.534 405.809 153.047L385.009 155.35ZM355.617 158.605L334.817 160.908C336.089 172.395 346.433 180.677 357.921 179.405L355.617 158.605ZM352.932 134.35L373.732 132.047C372.46 120.56 362.116 112.278 350.628 113.55L352.932 134.35ZM311.831 138.901L309.528 118.101C298.04 119.373 289.759 129.717 291.031 141.205L311.831 138.901ZM314.517 163.156L316.82 183.956C328.307 182.684 336.589 172.34 335.317 160.853L314.517 163.156ZM285.125 166.41L264.325 168.714C265.597 180.201 275.94 188.482 287.428 187.21L285.125 166.41ZM279.594 83.6924L259.491 77.8756C259.469 77.9522 259.447 78.029 259.426 78.1059L279.594 83.6924ZM302.822 55.3592L312.519 73.9041L312.519 73.9041L302.822 55.3592ZM343.445 50.8609L338.04 71.0781L338.04 71.0781L343.445 50.8609ZM372.19 73.439L353.733 83.3025C353.771 83.3729 353.809 83.443 353.847 83.513L372.19 73.439ZM309.106 114.289L288.305 116.592C289.577 128.08 299.921 136.361 311.409 135.089L309.106 114.289ZM350.206 109.738L352.51 130.538C363.997 129.266 372.278 118.922 371.006 107.434L350.206 109.738ZM346.087 85.6422L327.083 94.4047C327.191 94.6393 327.303 94.8718 327.42 95.1021L346.087 85.6422ZM341.377 79.149L326.643 94.0102C326.852 94.2177 327.066 94.4207 327.283 94.6191L341.377 79.149ZM334.502 74.9515L341.245 55.1404L341.245 55.1404L334.502 74.9515ZM316.819 76.9096L305.905 59.0536L305.905 59.0536L316.819 76.9096ZM310.91 82.5227L293.543 70.8453C293.529 70.8661 293.515 70.8869 293.501 70.9078L310.91 82.5227ZM307.734 89.889L287.399 84.9453C287.37 85.0651 287.342 85.1852 287.315 85.3055L307.734 89.889ZM385.009 155.35L382.706 134.55L353.314 137.805L355.617 158.605L357.921 179.405L387.313 176.15L385.009 155.35ZM355.617 158.605L376.417 156.301L373.732 132.047L352.932 134.35L332.132 136.654L334.817 160.908L355.617 158.605ZM352.932 134.35L350.628 113.55L309.528 118.101L311.831 138.901L314.134 159.702L355.235 155.15L352.932 134.35ZM311.831 138.901L291.031 141.205L293.717 165.459L314.517 163.156L335.317 160.853L332.631 136.598L311.831 138.901ZM314.517 163.156L312.213 142.356L282.822 145.61L285.125 166.41L287.428 187.21L316.82 183.956L314.517 163.156ZM285.125 166.41L305.925 164.107L298.992 101.5L278.192 103.803L257.392 106.107L264.325 168.714L285.125 166.41ZM278.192 103.803L298.992 101.5C298.458 96.6759 298.821 92.6746 299.761 89.2788L279.594 83.6924L259.426 78.1059C256.91 87.1873 256.339 96.5933 257.392 106.107L278.192 103.803ZM279.594 83.6924L299.696 89.5092C300.763 85.8232 302.348 82.8585 304.378 80.3703L288.162 67.1418L271.946 53.9132C266.167 60.9978 262.04 69.0668 259.491 77.8756L279.594 83.6924ZM288.162 67.1418L304.378 80.3703C306.366 77.9339 308.977 75.756 312.519 73.9041L302.822 55.3592L293.125 36.8143C284.929 41.0998 277.768 46.777 271.946 53.9132L288.162 67.1418ZM302.822 55.3592L312.519 73.9041C315.814 72.1812 319.893 70.8956 325.04 70.3257L322.737 49.5257L320.433 28.7256C310.764 29.7963 301.567 32.3997 293.125 36.8143L302.822 55.3592ZM322.737 49.5257L325.04 70.3257C330.186 69.7559 334.448 70.1178 338.04 71.0781L343.445 50.8609L348.85 30.6438C339.646 28.1832 330.102 27.655 320.433 28.7256L322.737 49.5257ZM343.445 50.8609L338.04 71.0781C341.901 72.1104 344.926 73.664 347.399 75.6066L360.327 59.1508L373.256 42.695C366.014 37.0053 357.784 33.0324 348.85 30.6438L343.445 50.8609ZM360.327 59.1508L347.399 75.6066C349.867 77.5462 351.981 80.0245 353.733 83.3025L372.19 73.439L390.647 63.5756C386.296 55.4349 380.502 48.3877 373.256 42.695L360.327 59.1508ZM372.19 73.439L353.847 83.513C355.52 86.5601 356.752 90.3061 357.277 95.0462L378.077 92.743L398.877 90.4397C397.814 80.8423 395.121 71.719 390.533 63.3651L372.19 73.439ZM378.077 92.743L357.277 95.0462L364.209 157.653L385.009 155.35L405.809 153.047L398.877 90.4397L378.077 92.743ZM309.106 114.289L311.409 135.089L352.51 130.538L350.206 109.738L347.903 88.9376L306.802 93.4888L309.106 114.289ZM350.206 109.738L371.006 107.434L369.22 91.3048L348.42 93.608L327.62 95.9112L329.406 112.041L350.206 109.738ZM348.42 93.608L369.22 91.3048C368.641 86.0776 367.186 80.9813 364.754 76.1822L346.087 85.6422L327.42 95.1021C327.464 95.1891 327.564 95.4033 327.62 95.9112L348.42 93.608ZM346.087 85.6422L365.091 76.8796C362.805 71.9217 359.604 67.4448 355.47 63.6788L341.377 79.149L327.283 94.6191C327.213 94.555 327.145 94.4788 327.094 94.4082C327.044 94.3396 327.046 94.3261 327.083 94.4047L346.087 85.6422ZM341.377 79.149L356.111 64.2877C351.826 60.0395 346.754 57.0154 341.245 55.1404L334.502 74.9515L327.759 94.7627C327.724 94.7508 327.562 94.6904 327.326 94.5465C327.087 94.4004 326.85 94.2156 326.643 94.0102L341.377 79.149ZM334.502 74.9515L341.245 55.1404C335.161 53.0696 328.987 52.6929 323.159 53.3383L325.462 74.1384L327.765 94.9384C328.203 94.8899 328.385 94.9095 328.356 94.9069C328.341 94.9055 328.276 94.8988 328.17 94.8767C328.063 94.8545 327.924 94.8187 327.759 94.7627L334.502 74.9515ZM325.462 74.1384L323.159 53.3383C317.33 53.9837 311.389 55.7019 305.905 59.0536L316.819 76.9096L327.733 94.7656C327.584 94.8562 327.456 94.9217 327.357 94.9667C327.258 95.0115 327.196 95.0322 327.182 95.0369C327.154 95.0459 327.327 94.9869 327.765 94.9384L325.462 74.1384ZM316.819 76.9096L305.905 59.0536C301.017 62.041 296.811 65.9855 293.543 70.8453L310.91 82.5227L328.276 94.2001C328.187 94.3314 328.071 94.4707 327.942 94.594C327.814 94.7155 327.729 94.7682 327.733 94.7656L316.819 76.9096ZM310.91 82.5227L293.501 70.9078C290.592 75.2686 288.598 80.0134 287.399 84.9453L307.734 89.889L328.069 94.8328C328.138 94.5491 328.204 94.3738 328.244 94.2809C328.283 94.1903 328.309 94.1497 328.318 94.1375L310.91 82.5227ZM307.734 89.889L287.315 85.3055C286.182 90.3507 285.963 95.4417 286.519 100.462L307.319 98.1591L328.12 95.8559C328.04 95.1416 328.098 94.7192 328.153 94.4726L307.734 89.889ZM307.319 98.1591L286.519 100.462L288.305 116.592L309.106 114.289L329.906 111.986L328.12 95.8559L307.319 98.1591Z" fill="white" mask="url(#path-3-outside-2_81_2548)"/>
<mask id="path-5-outside-3_81_2548" maskUnits="userSpaceOnUse" x="-2.95087" y="19.9308" width="170.085" height="177.829" fill="black">
<rect fill="white" x="-2.95087" y="19.9308" width="170.085" height="177.829"/>
<path d="M67.1491 137.441L73.2462 166.623L44.2998 172.671L21.8782 65.3573L80.3594 53.1385C86.3997 51.8765 91.9243 51.8684 96.933 53.1142C102.004 54.2653 106.446 56.3254 110.259 59.2947C114.151 62.2476 117.373 65.9135 119.925 70.2925C122.478 74.6714 124.287 79.4103 125.352 84.5093C126.745 91.1772 126.723 97.7315 125.285 104.172C123.925 110.596 121.026 116.114 116.586 120.726L141.494 152.364L111.724 158.584L90.8005 132.5L67.1491 137.441ZM84.8929 108.927C89.3643 107.993 92.6468 105.874 94.7403 102.572C96.8174 99.1903 97.3724 95.1855 96.4054 90.5572C95.4384 85.9289 93.3345 82.5206 90.0937 80.3323C86.8365 78.0655 82.9722 77.3992 78.5008 78.3335L55.7908 83.0784L62.1829 113.672L84.8929 108.927Z"/>
</mask>
<path d="M67.1491 137.441L73.2462 166.623L44.2998 172.671L21.8782 65.3573L80.3594 53.1385C86.3997 51.8765 91.9243 51.8684 96.933 53.1142C102.004 54.2653 106.446 56.3254 110.259 59.2947C114.151 62.2476 117.373 65.9135 119.925 70.2925C122.478 74.6714 124.287 79.4103 125.352 84.5093C126.745 91.1772 126.723 97.7315 125.285 104.172C123.925 110.596 121.026 116.114 116.586 120.726L141.494 152.364L111.724 158.584L90.8005 132.5L67.1491 137.441ZM84.8929 108.927C89.3643 107.993 92.6468 105.874 94.7403 102.572C96.8174 99.1903 97.3724 95.1855 96.4054 90.5572C95.4384 85.9289 93.3345 82.5206 90.0937 80.3323C86.8365 78.0655 82.9722 77.3992 78.5008 78.3335L55.7908 83.0784L62.1829 113.672L84.8929 108.927Z" fill="url(#paint2_linear_81_2548)"/>
<path d="M67.1491 137.441L62.8691 116.956C51.5556 119.32 44.3005 130.408 46.6643 141.721L67.1491 137.441ZM73.2462 166.623L77.5262 187.108C88.8397 184.744 96.0948 173.656 93.731 162.343L73.2462 166.623ZM44.2998 172.671L23.8149 176.951C26.1787 188.264 37.2663 195.519 48.5798 193.156L44.2998 172.671ZM21.8782 65.3573L17.5982 44.8724C6.28475 47.2362 -0.970411 58.3238 1.39337 69.6373L21.8782 65.3573ZM96.933 53.1142L91.8816 73.4226C92.021 73.4573 92.1606 73.4905 92.3006 73.5223L96.933 53.1142ZM110.259 59.2947L97.4021 75.8065C97.471 75.8602 97.5402 75.9134 97.6097 75.9661L110.259 59.2947ZM125.285 104.172L104.86 99.6124C104.843 99.688 104.827 99.7638 104.811 99.8397L125.285 104.172ZM116.586 120.726L101.51 106.212C94.2622 113.74 93.6788 125.461 100.143 133.672L116.586 120.726ZM141.494 152.364L145.774 172.848C152.864 171.367 158.684 166.325 161.16 159.519C163.636 152.712 162.417 145.109 157.937 139.418L141.494 152.364ZM111.724 158.584L95.3995 171.678C100.329 177.824 108.292 180.68 116.004 179.068L111.724 158.584ZM90.8005 132.5L107.125 119.405C102.195 113.26 94.2321 110.404 86.5205 112.015L90.8005 132.5ZM94.7403 102.572L112.416 113.775C112.468 113.692 112.52 113.609 112.572 113.525L94.7403 102.572ZM90.0937 80.3323L78.1397 97.5093C78.2203 97.5653 78.3012 97.6208 78.3826 97.6758L90.0937 80.3323ZM55.7908 83.0784L51.5108 62.5935C40.1974 64.9573 32.9422 76.0449 35.306 87.3584L55.7908 83.0784ZM62.1829 113.672L41.6981 117.952C44.0619 129.266 55.1495 136.521 66.4629 134.157L62.1829 113.672ZM67.1491 137.441L46.6643 141.721L52.7614 170.903L73.2462 166.623L93.731 162.343L87.634 133.161L67.1491 137.441ZM73.2462 166.623L68.9662 146.138L40.0198 152.186L44.2998 172.671L48.5798 193.156L77.5262 187.108L73.2462 166.623ZM44.2998 172.671L64.7846 168.391L42.3631 61.0773L21.8782 65.3573L1.39337 69.6373L23.8149 176.951L44.2998 172.671ZM21.8782 65.3573L26.1582 85.8421L84.6394 73.6233L80.3594 53.1385L76.0794 32.6537L17.5982 44.8724L21.8782 65.3573ZM80.3594 53.1385L84.6394 73.6233C88.1918 72.8811 90.471 73.0718 91.8816 73.4226L96.933 53.1142L101.984 32.8059C93.3775 30.665 84.6077 30.8718 76.0794 32.6537L80.3594 53.1385ZM96.933 53.1142L92.3006 73.5223C94.6084 74.0461 96.1917 74.864 97.4021 75.8065L110.259 59.2947L123.116 42.7829C116.7 37.7868 109.399 34.4844 101.565 32.7062L96.933 53.1142ZM110.259 59.2947L97.6097 75.9661C99.2224 77.1898 100.628 78.7428 101.845 80.8307L119.925 70.2925L138.006 59.7542C134.118 53.0842 129.08 47.3055 122.909 42.6233L110.259 59.2947ZM119.925 70.2925L101.845 80.8307C103.233 83.2125 104.249 85.8302 104.867 88.7893L125.352 84.5093L145.837 80.2293C144.324 72.9904 141.722 66.1303 138.006 59.7542L119.925 70.2925ZM125.352 84.5093L104.867 88.7893C105.671 92.6364 105.628 96.175 104.86 99.6124L125.285 104.172L145.709 108.732C147.818 99.2879 147.819 89.718 145.837 80.2293L125.352 84.5093ZM125.285 104.172L104.811 99.8397C104.24 102.536 103.16 104.498 101.51 106.212L116.586 120.726L131.662 135.24C138.891 127.731 143.61 118.657 145.759 108.505L125.285 104.172ZM116.586 120.726L100.143 133.672L125.051 165.309L141.494 152.364L157.937 139.418L133.029 107.781L116.586 120.726ZM141.494 152.364L137.214 131.879L107.444 138.099L111.724 158.584L116.004 179.068L145.774 172.848L141.494 152.364ZM111.724 158.584L128.048 145.489L107.125 119.405L90.8005 132.5L74.4762 145.594L95.3995 171.678L111.724 158.584ZM90.8005 132.5L86.5205 112.015L62.8691 116.956L67.1491 137.441L71.4291 157.926L95.0805 152.984L90.8005 132.5ZM84.8929 108.927L89.1729 129.412C98.1709 127.532 106.784 122.661 112.416 113.775L94.7403 102.572L77.0647 91.368C77.6387 90.4625 78.4526 89.6403 79.36 89.0547C80.2087 88.5069 80.7525 88.4132 80.6129 88.4424L84.8929 108.927ZM94.7403 102.572L112.572 113.525C117.968 104.742 118.728 95.0709 116.89 86.2772L96.4054 90.5572L75.9206 94.8372C75.9941 95.1892 75.8823 94.9028 75.9854 94.1591C76.0972 93.3521 76.4044 92.4389 76.9088 91.6179L94.7403 102.572ZM96.4054 90.5572L116.89 86.2772C115.057 77.5037 110.471 68.8405 101.805 62.9888L90.0937 80.3323L78.3826 97.6758C77.4828 97.0682 76.7626 96.2804 76.2946 95.5222C75.8647 94.8258 75.8459 94.48 75.9206 94.8372L96.4054 90.5572ZM90.0937 80.3323L102.048 63.1553C93.3363 57.0928 83.3964 55.9315 74.2208 57.8486L78.5008 78.3335L82.7808 98.8183C82.8556 98.8027 82.2529 98.9375 81.1968 98.7554C80.074 98.5618 78.9935 98.1035 78.1397 97.5093L90.0937 80.3323ZM78.5008 78.3335L74.2208 57.8486L51.5108 62.5935L55.7908 83.0784L60.0708 103.563L82.7808 98.8183L78.5008 78.3335ZM55.7908 83.0784L35.306 87.3584L41.6981 117.952L62.1829 113.672L82.6678 109.392L76.2757 78.7984L55.7908 83.0784ZM62.1829 113.672L66.4629 134.157L89.1729 129.412L84.8929 108.927L80.6129 88.4424L57.9029 93.1873L62.1829 113.672Z" fill="white" mask="url(#path-5-outside-3_81_2548)"/>
<defs>
<linearGradient id="paint0_linear_81_2548" x1="209.409" y1="6.38224" x2="196.316" y2="146.757" gradientUnits="userSpaceOnUse">
<stop stop-color="#ABFBB3"/>
<stop offset="0.480769" stop-color="#0DD2B7"/>
<stop offset="1" stop-color="#06BFA4"/>
</linearGradient>
<linearGradient id="paint1_linear_81_2548" x1="320.812" y1="31.9182" x2="335.989" y2="172.083" gradientUnits="userSpaceOnUse">
<stop stop-color="#ABFBB3"/>
<stop offset="0.480769" stop-color="#0DD2B7"/>
<stop offset="1" stop-color="#06BFA4"/>
</linearGradient>
<linearGradient id="paint2_linear_81_2548" x1="62.8374" y1="36.2485" x2="91.3095" y2="174.328" gradientUnits="userSpaceOnUse">
<stop stop-color="#ABFBB3"/>
<stop offset="0.480769" stop-color="#0DD2B7"/>
<stop offset="1" stop-color="#06BFA4"/>
</linearGradient>
</defs>
</svg>
